<svg width="40" height="40" viewBox="0 0 40 40" fill="none" xmlns="http://www.w3.org/2000/svg">
    <path d="M20.0005 1.125C9.563 1.125 1.12549 9.5625 1.12549 20C1.12549 30.4375 9.563 38.9375 20.0005 38.9375C30.438 38.9375 38.938 30.4375 38.938 20C38.938 9.5625 30.438 1.125 20.0005 1.125ZM36.063 20.5625C32.3755 20.3125 28.5005 20.6875 24.688 21.625C24.1255 20.125 23.563 18.6875 22.938 17.25C26.8755 15.9375 30.563 14 33.7505 11.6875C35.2505 14.125 36.063 17 36.063 20.0625C36.1255 20.1875 36.063 20.375 36.063 20.5625ZM32.063 9.375C29.063 11.625 25.5005 13.4375 21.688 14.625C19.688 10.625 17.438 7.25 15.063 4.62501C16.6255 4.12501 18.2505 3.875 20.0005 3.875C24.813 3.9375 29.1255 6.0625 32.063 9.375ZM12.313 5.875C14.688 8.25 16.938 11.5 18.938 15.4375C14.0005 16.625 8.938 16.8125 4.37549 16C5.56299 11.625 8.438 8 12.313 5.875ZM3.93799 18.75C6.00049 19.1875 8.1255 19.375 10.2505 19.375C13.5005 19.375 16.8755 18.9375 20.188 18.0625C20.813 19.4375 21.438 20.875 21.938 22.375C16.438 24.125 11.563 26.875 7.688 30.4375C5.37549 27.5625 3.93799 23.9375 3.93799 20C3.93799 19.5625 3.93799 19.1875 3.93799 18.75ZM9.688 32.375C13.2505 29.125 17.813 26.5625 22.8755 25C23.063 25.625 23.2505 26.25 23.438 26.8125C24.2505 29.625 24.8755 32.4375 25.313 35.125C23.6255 35.6875 21.8755 36.0625 20.0005 36.0625C16.063 36.125 12.5005 34.6875 9.688 32.375ZM28.0005 33.9375C27.563 31.375 26.938 28.6875 26.188 26C26.0005 25.375 25.813 24.8125 25.6255 24.1875C29.0005 23.375 32.5005 23.0625 35.7505 23.25C34.813 27.875 31.8755 31.6875 28.0005 33.9375Z" fill="#111928"/>
</svg>