<svg width="40" height="40" viewBox="0 0 40 40" fill="none" xmlns="http://www.w3.org/2000/svg">
    <g clip-path="url(#clip0_506_1423)">
        <path d="M38.75 12.75L20.9375 0.875002C20.3125 0.499999 19.6875 0.499999 19.0625 0.875002L1.3125 12.75C0.875 13 0.625 13.625 0.625 14.0625V25.875C0.625 26.375 0.875 26.9375 1.3125 27.3125L19.0625 39.125C19.6875 39.5 20.3125 39.5 20.9375 39.125L38.6875 27.3125C39.125 27.0625 39.375 26.4375 39.375 25.875V14.0625C39.4375 13.5625 39.1875 13 38.75 12.75ZM21.6875 5.375L34.75 14.125L28.8125 18L21.625 13.125C21.6875 13.125 21.6875 5.375 21.6875 5.375ZM18.375 5.375V13.125L11.125 18L5.3125 14.125L18.375 5.375ZM4 17.1875L8.125 20L4 22.8125V17.1875ZM18.375 34.625L5.3125 25.875L11.125 22L18.375 26.875V34.625ZM20.0625 24L14.125 20L20.0625 16L26 20L20.0625 24ZM21.6875 34.625V26.875L28.9375 22L34.75 25.875L21.6875 34.625ZM36.0625 22.8125L31.9375 20L36.0625 17.1875V22.8125Z" fill="#111928"/>
    </g>
    <defs>
        <clipPath id="clip0_506_1423">
            <rect width="40" height="40" fill="white"/>
        </clipPath>
    </defs>
</svg>