<svg width="40" height="40" viewBox="0 0 40 40" fill="none" xmlns="http://www.w3.org/2000/svg">
    <path d="M35.0625 6.9375H20.625L19.3125 4.4375C18.625 3.1875 17.375 2.375 15.9375 2.375H4.9375C2.8125 2.375 1.125 4.0625 1.125 6.1875V33.8125C1.125 35.9375 2.8125 37.625 4.9375 37.625H35.125C37.25 37.625 38.9375 35.9375 38.9375 33.8125V10.75C38.9375 8.625 37.1875 6.9375 35.0625 6.9375ZM4.9375 5.1875H15.9375C16.3125 5.1875 16.625 5.375 16.8125 5.75L18.5625 9C18.8125 9.4375 19.3125 9.75 19.8125 9.75H35.125C35.6875 9.75 36.125 10.1875 36.125 10.75V12.5H3.9375V6.1875C3.9375 5.625 4.375 5.1875 4.9375 5.1875ZM35.0625 34.8125H4.9375C4.375 34.8125 3.9375 34.375 3.9375 33.8125V15.3125H36.125V33.8125C36.125 34.375 35.625 34.8125 35.0625 34.8125Z" fill="#111928"/>
</svg>