<svg width="40" height="40" viewBox="0 0 40 40" fill="none" xmlns="http://www.w3.org/2000/svg">
    <path d="M22.6255 39.875H17.7505C16.5005 39.875 15.5005 38.8125 15.5005 37.5V22.625H11.5005C10.2505 22.625 9.25049 21.5625 9.25049 20.25V15.9375C9.25049 14.625 10.2505 13.5625 11.5005 13.5625H15.3755V9.625C15.3755 3.9375 18.7505 0.125 23.7505 0.125H27.5005C28.7505 0.125 29.7505 1.1875 29.7505 2.5V7.5625C29.7505 8.875 28.7505 9.9375 27.5005 9.9375H24.938C24.8755 9.9375 24.8755 9.9375 24.813 9.9375C24.813 10 24.813 10.0625 24.813 10.125V13.5H28.3755C29.1255 13.5625 29.7505 13.875 30.188 14.375C30.6255 14.9375 30.813 15.6875 30.688 16.375L29.938 20.625C29.813 21.75 28.8755 22.5625 27.688 22.5625H24.813V37.5C24.813 38.75 23.813 39.875 22.6255 39.875ZM16.563 20.4375C17.188 20.4375 17.688 20.9375 17.688 21.5625V37.5C17.688 37.625 17.7505 37.6875 17.7505 37.6875H22.6255C22.6255 37.6875 22.688 37.625 22.688 37.5V21.4375C22.688 20.8125 23.188 20.3125 23.813 20.3125H27.7505C27.7505 20.3125 27.813 20.3125 27.813 20.25V20.1875L28.563 16C28.563 15.875 28.563 15.8125 28.5005 15.75C28.5005 15.75 28.438 15.6875 28.3755 15.6875H23.7505C23.1255 15.6875 22.6255 15.1875 22.6255 14.5625V10.125C22.6255 9 22.813 7.75 24.938 7.75H27.5005C27.5005 7.75 27.563 7.6875 27.563 7.5625V2.5625C27.563 2.4375 27.5005 2.375 27.5005 2.375H23.813C20.063 2.375 17.6255 5.25 17.6255 9.6875V14.75C17.6255 15.375 17.1255 15.875 16.5005 15.875H11.5005C11.5005 15.875 11.438 15.9375 11.438 16.0625V20.375C11.438 20.5 11.5005 20.5625 11.5005 20.5625L16.563 20.4375Z" fill="#111928"/>
</svg>