<svg width="40" height="40" viewBox="0 0 40 40" fill="none" xmlns="http://www.w3.org/2000/svg">
    <g clip-path="url(#clip0_506_1427)">
        <path d="M39.3125 12C39.25 10 38.875 8.5625 38.4375 7.25C38 5.9375 37.3125 4.875 36.25 3.8125C35.1875 2.75 34.125 2.125 32.875 1.625C31.625 1.125 30.25 0.8125 28.125 0.75C25.9375 0.625 25.3125 0.625 20 0.625C14.6875 0.625 14.125 0.625 12 0.6875C9.875 0.75 8.5625 1.125 7.25 1.5625C5.9375 2 4.875 2.75 3.8125 3.8125C2.75 4.875 2.0625 5.9375 1.625 7.25C1.125 8.5 0.8125 9.875 0.75 12C0.6875 14.125 0.625 14.6875 0.625 20C0.625 25.3125 0.625 25.875 0.6875 28C0.75 30.125 1.125 31.4375 1.5625 32.75C2 34.0625 2.6875 35.125 3.75 36.1875C4.8125 37.25 5.9375 37.9375 7.1875 38.375C8.4375 38.8125 9.8125 39.1875 11.9375 39.25C14.0625 39.375 14.625 39.375 19.9375 39.375C25.25 39.375 25.8125 39.375 27.9375 39.3125C30.0625 39.25 31.375 38.875 32.6875 38.4375C34 38 35.0625 37.3125 36.125 36.25C37.1875 35.1875 37.875 34.0625 38.3125 32.8125C38.75 31.5625 39.125 30.1875 39.1875 28.0625C39.25 26.0625 39.25 25.4375 39.25 20.125C39.25 14.8125 39.375 14.125 39.3125 12ZM35.8125 27.8125C35.75 29.6875 35.375 30.6875 35.125 31.4375C34.75 32.3125 34.3125 33 33.625 33.625C32.9375 34.3125 32.3125 34.6875 31.4375 35.125C30.75 35.375 29.75 35.75 27.8125 35.8125C25.8125 35.8125 25.1875 35.8125 20.0625 35.8125C14.9375 35.8125 14.25 35.8125 12.25 35.75C10.375 35.6875 9.375 35.3125 8.625 35.0625C7.75 34.6875 7.0625 34.25 6.4375 33.5625C5.75 32.875 5.375 32.25 4.9375 31.375C4.6875 30.6875 4.3125 29.6875 4.25 27.75C4.25 25.8125 4.25 25.1875 4.25 20C4.25 14.8125 4.25 14.1875 4.3125 12.1875C4.375 10.3125 4.75 9.3125 5 8.5625C5.375 7.6875 5.8125 7 6.4375 6.375C7.125 5.6875 7.75 5.3125 8.625 4.9375C9.3125 4.6875 10.3125 4.3125 12.25 4.25C14.25 4.1875 14.875 4.1875 20.0625 4.1875C25.25 4.1875 25.875 4.1875 27.875 4.25C29.75 4.3125 30.75 4.6875 31.5 4.9375C32.375 5.3125 33.0625 5.75 33.6875 6.375C34.375 7.0625 34.75 7.6875 35.1875 8.5625C35.4375 9.25 35.8125 10.25 35.875 12.1875C35.9375 14.1875 35.9375 14.8125 35.9375 20C35.9375 25.1875 35.875 25.8125 35.8125 27.8125Z" fill="#111928"/>
        <path d="M20.001 10.062C14.4385 10.062 10.0635 14.562 10.0635 19.9995C10.0635 25.562 14.5635 29.937 20.001 29.937C25.4385 29.937 30.001 25.562 30.001 19.9995C30.001 14.437 25.5635 10.062 20.001 10.062ZM20.001 26.4995C16.376 26.4995 13.501 23.562 13.501 19.9995C13.501 16.437 16.4385 13.4995 20.001 13.4995C23.626 13.4995 26.501 16.3745 26.501 19.9995C26.501 23.6245 23.626 26.4995 20.001 26.4995Z" fill="#111928"/>
        <path d="M30.4375 11.9375C31.7147 11.9375 32.75 10.9021 32.75 9.625C32.75 8.34781 31.7147 7.3125 30.4375 7.3125C29.1603 7.3125 28.125 8.34781 28.125 9.625C28.125 10.9021 29.1603 11.9375 30.4375 11.9375Z" fill="#111928"/>
    </g>
    <defs>
        <clipPath id="clip0_506_1427">
            <rect width="40" height="40" fill="white"/>
        </clipPath>
    </defs>
</svg>