<svg width="40" height="40" viewBox="0 0 40 40" fill="none" xmlns="http://www.w3.org/2000/svg">
    <path d="M12.9911 40C8.55311 40 4.24756 38.4646 0.670668 35.4747C0.0745187 34.9899 -0.124198 34.101 0.0745187 33.2929C0.339474 32.4848 1.00186 32 1.66425 32.1616C2.19416 32.2424 2.72407 32.3232 3.25398 32.3232C5.17491 32.3232 7.02962 31.8384 8.75183 30.9495C6.63219 29.6566 4.90995 27.3939 4.18133 24.4848C4.04885 23.9192 4.11509 23.3535 4.38004 22.8687C2.52536 20.7677 1.46553 17.8586 1.46553 14.7071V14.6263C1.46553 13.9798 1.73049 13.4141 2.19416 13.0909C2.2604 13.0101 2.32664 13.0101 2.39288 12.9293C1.79673 11.4747 1.46553 9.77778 1.46553 8.16162C1.46553 6.14141 1.86297 4.28283 2.65783 2.66667C2.92279 2.18182 3.32022 1.85859 3.85013 1.77778C4.3138 1.69697 4.84371 2.0202 5.10867 2.42424C8.28816 7.19192 12.8586 10.2626 17.7603 11.0707V10.9899C17.7603 4.92929 21.8009 0 26.7688 0C28.9547 0 31.0081 0.969697 32.664 2.74747C33.3927 2.42424 34.1875 1.77778 34.9824 1.21212C35.3798 0.888889 35.7773 0.565657 36.1747 0.323232C36.6384 7.22481e-08 37.2345 0 37.7644 0.40404C38.2943 0.808081 38.4931 1.45455 38.4268 2.10101C38.3606 2.58586 38.2281 3.71717 37.9632 4.92929C38.0956 4.92929 38.1619 4.92929 38.2281 4.92929C38.8243 4.76768 39.4204 5.09091 39.7516 5.73737C40.0828 6.38384 40.0828 7.11111 39.7516 7.75758C38.8243 9.45455 37.4332 10.5859 36.1747 11.6364C36.0422 11.7172 35.9098 11.8788 35.8435 11.9596C35.8435 12.0404 35.8435 12.1212 35.8435 12.202C35.9098 25.7778 27.2987 40 12.9911 40ZM7.29458 35.3131C9.08303 35.9596 11.004 36.2828 12.9911 36.2828C25.444 36.2828 32.929 23.9192 32.929 11.9596C32.929 11.6364 32.929 11.3131 32.929 10.9899C32.8628 10.3434 33.0615 9.69697 33.5252 9.29293C33.8563 8.9697 34.2538 8.64646 34.585 8.32323C34.7837 8.16162 34.9824 8 35.1811 7.83838C34.8499 7.67677 34.585 7.27273 34.4525 6.86869C34.32 6.46465 34.32 5.9798 34.4525 5.57576C33.8563 5.89899 33.2602 6.14141 32.664 6.30303C32.2004 6.38384 31.6705 6.22222 31.3393 5.73737C30.147 4.20202 28.6235 3.39394 26.9675 3.39394C23.6556 3.39394 20.9398 6.70707 20.9398 10.7475C20.9398 11.2323 21.006 11.798 21.0723 12.4444C21.1385 13.0101 21.0723 13.5758 20.7411 13.9798C20.4099 14.3838 20.0124 14.6263 19.5488 14.6263C13.9185 14.303 8.61935 11.4747 4.645 6.70707C4.57876 7.11111 4.57876 7.51515 4.57876 7.91919C4.57876 10.4242 5.57237 12.6869 7.29458 14.0606C7.82449 14.5455 8.08944 15.3535 7.89073 16.1616C7.69201 16.9697 7.09586 17.4545 6.43347 17.4545C5.9698 17.4545 5.43989 17.3737 4.97619 17.2121C5.70485 19.4747 7.36082 21.2525 9.41422 21.7374C10.0766 21.899 10.6065 22.6263 10.6065 23.5152C10.6065 24.404 10.1428 25.1313 9.48046 25.2929C9.08303 25.4545 8.61935 25.5354 8.28816 25.6162C9.41422 27.2323 11.004 28.202 12.7924 28.202C13.4548 28.202 13.9847 28.6869 14.1834 29.4141C14.3821 30.1414 14.1834 30.9495 13.6535 31.4343C11.6001 33.3737 9.5467 34.6667 7.29458 35.3131Z" fill="#111928"/>
</svg>